<?xml version="1.0" standalone="no"?>
<!DOCTYPE svg PUBLIC "-//W3C//DTD SVG 20010904//EN"
 "http://www.w3.org/TR/2001/REC-SVG-20010904/DTD/svg10.dtd">
<svg version="1.0" xmlns="http://www.w3.org/2000/svg"
 width="1024.000000pt" height="332.000000pt" viewBox="0 0 1024.000000 332.000000"
 preserveAspectRatio="xMidYMid meet">

<g transform="translate(0.000000,332.000000) scale(0.100000,-0.100000)"
fill="#000000" stroke="none">
<path d="M1414 2992 c-132 -62 -163 -254 -56 -344 16 -13 43 -30 61 -37 31
-13 31 -14 31 -88 0 -89 16 -130 72 -177 l39 -34 -16 -33 c-54 -103 -85 -247
-85 -390 l0 -109 -153 0 c-181 0 -187 3 -187 88 0 49 2 53 39 76 53 34 80 74
92 140 32 175 -123 298 -277 221 -120 -61 -151 -220 -61 -322 17 -20 46 -42
63 -49 31 -13 32 -14 35 -93 4 -72 7 -83 34 -112 50 -53 77 -59 264 -59 l169
0 23 -67 c35 -109 89 -209 167 -310 l24 -33 -118 0 -119 0 -20 37 c-11 20 -37
50 -58 67 -36 29 -45 31 -117 31 -72 0 -81 -2 -117 -31 -116 -93 -107 -281 17
-344 101 -52 254 2 285 100 6 19 15 20 179 20 166 0 173 -1 192 -22 60 -68 92
-158 100 -287 4 -53 13 -111 22 -129 28 -61 33 -62 431 -62 209 0 370 4 385
10 45 17 62 60 69 173 9 157 46 243 157 362 125 134 205 267 253 420 151 483
-102 985 -578 1144 -272 91 -561 51 -805 -111 -55 -36 -196 -174 -218 -213
-11 -19 -13 -19 -42 13 -27 29 -30 38 -29 100 l0 67 42 30 c114 82 117 269 5
343 -53 35 -136 41 -194 14z m137 -121 c21 -22 29 -39 29 -66 0 -42 -44 -95
-80 -95 -53 0 -89 38 -89 95 0 86 81 124 140 66z m929 -201 c313 -50 565 -272
652 -576 29 -104 31 -293 4 -399 -39 -150 -118 -287 -250 -434 -77 -87 -134
-181 -157 -261 -7 -25 -15 -88 -18 -140 l-6 -95 -40 -6 c-73 -12 -606 -10
-621 2 -10 8 -14 35 -14 83 0 155 -54 282 -177 417 -198 219 -273 391 -273
624 0 209 70 390 208 536 188 200 436 289 692 249z m-1363 -482 c59 -55 21
-158 -60 -158 -60 0 -103 78 -75 136 26 55 88 65 135 22z m197 -923 c55 -51
20 -155 -53 -155 -43 0 -60 9 -76 41 -50 96 51 187 129 114z"/>
<path d="M2294 2486 c-29 -29 -34 -41 -34 -81 0 -40 5 -52 35 -82 l35 -35 0
-324 c0 -216 -3 -324 -10 -324 -23 0 -111 52 -143 84 -63 63 -52 102 37 134
58 20 65 33 35 61 -47 44 -152 18 -196 -48 -61 -90 1 -206 147 -274 25 -12 47
-23 49 -24 2 -1 -13 -16 -33 -34 -49 -42 -66 -78 -66 -136 0 -59 21 -96 88
-153 l50 -43 -38 -36 c-65 -62 -72 -153 -16 -200 15 -13 19 -13 27 0 5 8 6 26
3 41 -6 30 13 73 45 102 l21 19 0 -156 c0 -146 1 -157 20 -167 14 -8 26 -8 40
0 19 10 20 21 20 167 0 143 1 154 17 142 27 -23 42 -71 36 -121 -3 -27 -2 -48
1 -48 19 0 47 23 61 50 29 55 17 114 -34 172 l-30 34 49 42 c107 93 118 206
27 292 l-34 33 51 26 c107 53 178 157 156 229 -16 53 -23 63 -67 88 -36 22
-53 26 -95 22 -87 -9 -101 -59 -23 -79 24 -6 53 -22 66 -35 19 -21 20 -26 9
-54 -16 -39 -71 -87 -127 -111 -25 -10 -49 -19 -54 -19 -5 0 -9 133 -9 321 l0
321 30 34 c53 61 52 133 -1 178 -46 39 -101 36 -145 -8z m32 -1203 c-7 -7 -53
30 -79 63 -12 16 -21 42 -21 62 0 29 8 43 50 80 l49 45 3 -123 c1 -67 0 -125
-2 -127z m129 217 c43 -26 70 -78 61 -116 -7 -28 -78 -104 -96 -104 -6 0 -10
50 -10 120 0 66 3 120 6 120 4 0 21 -9 39 -20z"/>
<path d="M2582 2344 c-18 -9 -53 -40 -78 -68 l-45 -51 3 -85 3 -85 135 0 c160
0 237 19 300 73 38 32 70 78 70 102 0 5 -17 10 -38 10 -60 0 -123 23 -191 69
-72 49 -113 58 -159 35z"/>
<path d="M1994 2308 c-85 -52 -127 -67 -181 -68 -53 0 -56 -19 -14 -77 58 -80
174 -116 363 -111 l113 3 3 86 c3 82 1 88 -25 119 -85 102 -150 114 -259 48z"/>
<path d="M3740 2035 l0 -485 85 0 85 0 0 485 0 485 -85 0 -85 0 0 -485z"/>
<path d="M8404 2505 c-57 -24 -71 -125 -21 -160 34 -24 109 -20 135 8 31 33
31 106 0 134 -30 27 -76 34 -114 18z"/>
<path d="M7924 2335 l-18 -95 -93 0 -93 0 0 -70 0 -70 85 0 85 0 0 -203 c0
-194 1 -206 23 -248 37 -69 94 -93 229 -98 l108 -3 0 79 0 80 -81 -1 c-119 -2
-119 -1 -119 220 l0 173 96 3 96 3 0 65 0 65 -96 3 -97 3 7 94 7 95 -61 0 -60
0 -18 -95z"/>
<path d="M4365 2250 c-44 -7 -74 -21 -122 -57 l-33 -24 0 35 0 36 -75 0 -75 0
3 -342 2 -343 77 -3 76 -3 4 228 c3 207 5 231 23 262 55 92 196 93 250 1 18
-32 20 -55 23 -262 l3 -228 75 0 74 0 0 250 c0 227 -2 254 -20 304 -41 110
-154 168 -285 146z"/>
<path d="M5050 2234 c-19 -8 -47 -26 -61 -40 l-27 -25 -6 35 -7 36 -69 0 -70
0 0 -345 0 -345 79 0 80 0 3 234 c3 219 4 236 24 263 63 86 199 82 244 -8 18
-35 20 -60 20 -264 l0 -225 80 0 80 0 0 248 c0 205 -3 257 -17 297 -20 61 -84
126 -139 143 -56 17 -171 15 -214 -4z"/>
<path d="M5764 2236 c-95 -31 -180 -112 -215 -206 -31 -81 -24 -214 14 -293
58 -118 178 -189 317 -189 159 1 274 82 331 231 17 45 20 72 17 141 -6 136
-63 228 -180 290 -56 30 -73 34 -153 37 -56 2 -106 -2 -131 -11z m189 -140
c124 -51 157 -248 58 -347 -64 -65 -152 -73 -237 -24 -96 56 -113 228 -31 322
17 20 45 42 62 49 39 17 107 17 148 0z"/>
<path d="M7173 2235 c-23 -7 -62 -25 -87 -39 l-45 -26 37 -53 37 -54 41 18
c73 33 141 43 199 30 69 -16 96 -45 103 -112 5 -51 4 -52 -19 -46 -115 27
-270 14 -353 -31 -74 -40 -98 -85 -94 -183 3 -66 7 -81 32 -113 73 -96 258
-110 390 -31 l54 32 6 -38 6 -39 70 0 70 0 0 208 c0 114 -5 236 -11 272 -17
109 -65 168 -163 202 -62 21 -211 23 -273 3z m276 -379 c18 -12 13 -88 -9
-124 -22 -36 -60 -56 -127 -67 -56 -9 -97 1 -133 32 -60 50 -32 132 57 160 38
13 191 12 212 -1z"/>
<path d="M8858 2226 c-101 -42 -165 -111 -198 -215 -24 -76 -25 -127 -5 -206
40 -155 174 -258 334 -258 107 0 179 30 252 102 72 73 99 140 99 251 0 111
-27 178 -99 251 -72 72 -140 99 -249 99 -57 0 -91 -6 -134 -24z m220 -135 c20
-10 45 -27 54 -38 72 -79 61 -264 -18 -320 -92 -65 -207 -50 -271 34 -24 32
-28 47 -31 118 -4 87 12 138 55 177 53 48 148 61 211 29z"/>
<path d="M6253 2233 c3 -5 62 -154 132 -333 70 -179 132 -331 138 -338 7 -9
36 -12 100 -10 l89 3 127 340 127 340 -79 3 c-44 2 -81 1 -84 -1 -2 -3 -43
-113 -91 -245 -49 -133 -90 -243 -93 -246 -2 -2 -41 91 -86 207 -45 117 -89
229 -98 250 l-15 37 -86 0 c-47 0 -83 -3 -81 -7z"/>
<path d="M8367 1898 l2 -343 81 -3 80 -3 0 346 0 345 -82 0 -83 0 2 -342z"/>
<path d="M3749 1326 c-2 -2 -3 -218 -1 -480 l2 -476 86 0 85 0 -3 325 c-2 250
0 322 9 309 6 -8 71 -123 145 -255 73 -131 138 -237 143 -236 8 3 168 279 288
495 11 19 12 -37 9 -308 l-4 -330 91 0 91 0 -2 478 -3 477 -89 0 -89 0 -143
-259 c-79 -143 -146 -261 -148 -263 -1 -2 -70 116 -151 262 l-148 265 -82 0
c-45 0 -84 -2 -86 -4z"/>
<path d="M6060 1154 l0 -175 -33 25 c-57 44 -118 66 -183 66 -121 0 -205 -51
-265 -162 -33 -62 -34 -65 -34 -183 0 -108 3 -125 26 -175 56 -119 142 -180
266 -188 89 -6 144 12 194 64 l34 35 5 -43 5 -43 73 -3 72 -3 0 481 0 480 -80
0 -80 0 0 -176z m-113 -245 c147 -56 152 -325 6 -385 -70 -30 -170 -4 -211 54
-51 71 -52 202 -1 273 40 57 137 84 206 58z"/>
<path d="M6320 1250 l0 -80 145 0 145 0 0 -400 0 -400 85 0 85 0 0 400 0 400
145 0 145 0 0 80 0 80 -375 0 -375 0 0 -80z"/>
<path d="M8470 850 l0 -480 80 0 80 0 0 208 c0 114 5 224 10 244 13 46 67 94
117 102 51 9 111 -12 137 -47 20 -27 21 -43 24 -268 l3 -239 80 0 80 0 -3 262
c-3 247 -4 265 -25 303 -49 91 -127 135 -237 135 -62 0 -132 -24 -168 -57 -17
-15 -18 -8 -18 150 l0 167 -80 0 -80 0 0 -480z"/>
<path d="M5010 1053 c-65 -23 -151 -112 -180 -188 -18 -47 -23 -80 -24 -155 0
-84 3 -103 28 -157 35 -76 102 -142 171 -169 38 -15 76 -19 160 -19 98 0 116
3 165 26 30 14 65 35 77 45 l23 19 -35 57 -36 56 -55 -33 c-67 -41 -129 -52
-197 -36 -65 15 -101 42 -126 94 -39 81 -52 77 224 77 l245 0 0 48 c0 101 -44
216 -106 276 -73 71 -225 97 -334 59z m202 -129 c38 -20 88 -101 88 -145 0 -5
-77 -9 -171 -9 l-171 0 7 28 c30 125 138 180 247 126z"/>
<path d="M7219 1056 c-137 -49 -211 -169 -212 -341 0 -153 61 -263 181 -322
52 -26 66 -28 172 -28 105 0 120 2 175 28 33 15 67 35 77 44 17 15 16 19 -14
72 -17 31 -32 58 -34 60 -1 1 -18 -9 -37 -23 -69 -53 -170 -70 -250 -42 -50
18 -76 42 -98 91 -37 79 -49 75 226 75 l245 0 0 43 c0 52 -25 157 -46 199 -30
58 -94 116 -150 138 -64 23 -178 27 -235 6z m206 -140 c26 -17 57 -72 69 -118
l6 -28 -170 0 c-157 0 -170 1 -170 18 0 29 43 104 72 125 51 37 139 39 193 3z"/>
<path d="M7957 1046 c-76 -32 -123 -69 -158 -125 -124 -194 -39 -463 169 -541
86 -33 195 -26 283 17 35 18 76 44 89 58 l24 26 -50 50 -51 51 -47 -33 c-40
-28 -57 -34 -114 -37 -56 -2 -74 1 -107 20 -71 42 -104 135 -85 239 27 144
172 201 302 120 l51 -32 48 47 49 48 -22 23 c-12 13 -51 38 -86 55 -54 27 -78
32 -151 35 -73 3 -94 0 -144 -21z"/>
<path d="M2005 535 c-33 -32 -32 -68 1 -94 26 -20 38 -21 371 -21 l344 0 24
25 c14 13 25 34 25 45 0 11 -11 32 -25 45 l-24 25 -346 0 -346 0 -24 -25z"/>
<path d="M2133 333 c-26 -5 -53 -39 -53 -66 0 -10 11 -29 25 -42 l24 -25 248
0 c279 0 293 3 293 63 0 72 -23 77 -293 76 -122 -1 -232 -4 -244 -6z"/>
</g>
</svg>
